<svg id="Grupo_1069605" data-name="Grupo 1069605" xmlns="http://www.w3.org/2000/svg" width="108.924" height="108.924" viewBox="0 0 108.924 108.924">
  <circle id="Elipse_4745" data-name="Elipse 4745" cx="54.462" cy="54.462" r="54.462" fill="#fff"/>
  <path id="Trazado_102474" data-name="Trazado 102474" d="M430.876,194.262l-1.131-.25V172.032l.269-.074a.927.927,0,0,0,0-1.78l-.269-.074v-4.765a2.781,2.781,0,0,0-.927-5.4H378.76a2.781,2.781,0,0,0-.927,5.4v28.9a2.789,2.789,0,0,0,2.781,2.781h3.708v3.791a5.568,5.568,0,0,0-4.635,5.479V210a5.562,5.562,0,0,0,11.124,0v-3.708a5.569,5.569,0,0,0-4.635-5.479v-3.791h16.686v11.254a3.708,3.708,0,1,0,1.854,0V197.024h4.635v17.613a.927.927,0,0,0,.927.927h20.394a.927.927,0,0,0,.927-.927V195.17A.934.934,0,0,0,430.876,194.262Zm-53.043-31.537a.927.927,0,0,1,.927-.927h50.058a.927.927,0,1,1,0,1.854H378.76A.927.927,0,0,1,377.833,162.725Zm11.124,43.569V210a3.708,3.708,0,1,1-7.416,0v-3.708a3.708,3.708,0,1,1,7.416,0Zm16.686,5.562A1.854,1.854,0,1,1,403.789,210,1.854,1.854,0,0,1,405.643,211.857Zm4.431-17.595a.934.934,0,0,0-.723.908H386.176v-2.781h9.27a.927.927,0,0,0,.927-.927v-2.781H407.5a.927.927,0,0,0,.927-.927V172.922A.927.927,0,0,0,407.5,172h-2.781v-.927a.948.948,0,0,0-.343-.723.962.962,0,0,0-.788-.185l-8.139,1.817-8.139-1.817a.961.961,0,0,0-.788.185.947.947,0,0,0-.343.723V172h-2.781a.927.927,0,0,0-.927.927v14.832a.927.927,0,0,0,.927.927h11.124v1.854h-9.27a.927.927,0,0,0-.927.927v3.708h-3.708a.927.927,0,0,1-.927-.927V165.506h48.2v4.042l-7.147-2.151a1.057,1.057,0,0,0-.538,0l-9.27,2.781a.927.927,0,0,0,0,1.78l3.05.908v4.691a.757.757,0,0,0,.056.25,8.278,8.278,0,0,0-1.91,5.312.927.927,0,0,0,.927.927h.927v.927a6.489,6.489,0,0,0,3.708,5.849v1.752ZM386.9,184.955l7.62,1.687v.185h-10.2V173.849h1.854v10.2A.941.941,0,0,0,386.9,184.955Zm1.131-1.65V172.227l6.489,1.437v11.078Zm15.963,1.65a.941.941,0,0,0,.723-.908v-10.2h1.854v12.978h-10.2v-.185Zm-7.62-.213V173.664l6.489-1.437V183.3Zm19.467.232V183.62l1.492-1,.464.918a.926.926,0,0,0,1.168.445l4.181-1.678,1.965,1.316v1.353a4.635,4.635,0,1,1-9.27,0Zm3.189,13.154-5.84-2.651,4.783-1.066Zm1.446-25.242-6.044-1.817,6.044-1.817,6.044,1.817Zm4.635.538v3.207h-9.27v-3.207l4.366,1.316a.993.993,0,0,0,.538,0Zm-9.224,5.108c.009-.019.028-.028.046-.046h9.085c.019.009.028.028.046.037a6.5,6.5,0,0,1,1.836,3.671h-.584l-2.549-1.7a.9.9,0,0,0-.853-.093l-3.847,1.539-.547-1.094a.949.949,0,0,0-.584-.482.927.927,0,0,0-.751.13l-2.549,1.7h-.584a6.469,6.469,0,0,1,1.835-3.662Zm7.092,15.88,4.783,1.066-5.84,2.651Zm.278-1.835v-1.752a6.489,6.489,0,0,0,3.708-5.849v-.927h.927V193.6Zm3.652-14.767a.758.758,0,0,0,.056-.25v-4.691l.927-.278V179.3A7.83,7.83,0,0,0,426.908,177.807Zm-11.068,35.9H411.2v-17.1l4.635,2.114Zm3.708,0h-1.854V199.555l1.854.844Zm0-20.524v-1.8a5.827,5.827,0,0,0,1.854,0v1.8l-.927,3.245Zm3.708,20.524H421.4V200.4l1.854-.844Zm6.489,0H425.11v-14.99l4.635-2.114Z" transform="translate(-349.707 -133.651)" fill="#006e3c"/>
</svg>
