<svg id="Grupo_1069604" data-name="Grupo 1069604" xmlns="http://www.w3.org/2000/svg" width="108.924" height="108.924" viewBox="0 0 108.924 108.924">
  <g id="Grupo_1069602" data-name="Grupo 1069602" transform="translate(0 0)">
    <circle id="Elipse_4744" data-name="Elipse 4744" cx="54.462" cy="54.462" r="54.462" fill="#fff"/>
    <path id="Trazado_102507" data-name="Trazado 102507" d="M66.985,16H20.635A4.635,4.635,0,0,0,16,20.635V54.007a4.635,4.635,0,0,0,4.635,4.635H38.248V64.2H32.686a2.789,2.789,0,0,0-2.781,2.781v3.708a.927.927,0,0,0,.927.927H56.788a.927.927,0,0,0,.927-.927V66.986A2.789,2.789,0,0,0,54.934,64.2H49.372V58.642H66.985a4.635,4.635,0,0,0,4.635-4.635V20.635A4.635,4.635,0,0,0,66.985,16ZM17.854,20.635a2.789,2.789,0,0,1,2.781-2.781H42.883V32.686H36.394v-.927a4.635,4.635,0,0,0-3.4-4.45,3.676,3.676,0,0,0,.621-2.039V23.416a3.708,3.708,0,1,0-7.416,0V25.27a3.676,3.676,0,0,0,.621,2.039,4.635,4.635,0,0,0-3.4,4.45v.927H17.854ZM31.759,25.27a1.854,1.854,0,1,1-3.708,0Zm-3.708-1.854a1.854,1.854,0,1,1,3.708,0Zm3.708,5.562a2.789,2.789,0,0,1,2.781,2.781v.927H25.27v-.927a2.789,2.789,0,0,1,2.781-2.781ZM17.854,34.54H42.883V49.372H36.394v-.927a4.588,4.588,0,0,0-1.057-2.911,2.772,2.772,0,0,0-1.552-5.322q-.087.025-.173.057V40.1a3.708,3.708,0,1,0-7.416,0v.167a2.772,2.772,0,0,0-1.9,5.209q.085.031.173.057a4.588,4.588,0,0,0-1.057,2.911v.927H17.854ZM25.27,48.445a2.789,2.789,0,0,1,2.781-2.781h3.708a2.789,2.789,0,0,1,2.781,2.781v.927H25.27Zm-.927-5.562a.927.927,0,1,1,.927.927A.927.927,0,0,1,24.343,42.883Zm7.416-.927a1.854,1.854,0,1,1-3.708,0ZM28.051,40.1a1.854,1.854,0,1,1,3.708,0Zm5.562,2.781a.927.927,0,1,1,.927.927A.927.927,0,0,1,33.613,42.883ZM54.934,66.059a.927.927,0,0,1,.927.927v2.781h-24.1V66.986a.927.927,0,0,1,.927-.927ZM40.1,64.2V58.642h7.416V64.2Zm29.664-10.2a2.79,2.79,0,0,1-2.781,2.781H20.635a2.79,2.79,0,0,1-2.781-2.781V51.226H69.766Zm-10.2-8.343a2.79,2.79,0,0,1,2.781,2.781v.927H53.08v-.927a2.789,2.789,0,0,1,2.781-2.781Zm-3.708-3.708V40.1a1.854,1.854,0,1,1,3.708,0v1.854a1.854,1.854,0,1,1-3.708,0Zm13.905,7.416H64.2v-.927A4.635,4.635,0,0,0,60.8,44a3.676,3.676,0,0,0,.621-2.039V40.1a3.708,3.708,0,1,0-7.416,0v1.854A3.676,3.676,0,0,0,54.628,44a4.635,4.635,0,0,0-3.4,4.45v.927H44.737V34.54H69.766Zm-10.2-20.394a2.79,2.79,0,0,1,2.781,2.781v.927H53.08v-.927a2.789,2.789,0,0,1,2.781-2.781ZM55.861,25.27V23.416a1.854,1.854,0,1,1,3.708,0V25.27a1.854,1.854,0,1,1-3.708,0Zm13.905,7.416H64.2v-.927a4.635,4.635,0,0,0-3.4-4.45,3.676,3.676,0,0,0,.621-2.039V23.416a3.708,3.708,0,1,0-7.416,0V25.27a3.676,3.676,0,0,0,.621,2.039,4.635,4.635,0,0,0-3.4,4.45v.927H44.737V17.854H66.985a2.789,2.789,0,0,1,2.781,2.781Z" transform="translate(10.293 10.293)" fill="#006e3c"/>
  </g>
</svg>
