<svg id="Grupo_1069603" data-name="Grupo 1069603" xmlns="http://www.w3.org/2000/svg" xmlns:xlink="http://www.w3.org/1999/xlink" width="108.924" height="108.924" viewBox="0 0 108.924 108.924">
  <defs>
    <clipPath id="clip-path">
      <rect id="Rectángulo_374403" data-name="Rectángulo 374403" width="19.618" height="19.598" fill="#006e3c"/>
    </clipPath>
  </defs>
  <circle id="Elipse_4054" data-name="Elipse 4054" cx="54.462" cy="54.462" r="54.462" fill="#fff"/>
  <g id="Grupo_1069601" data-name="Grupo 1069601" transform="translate(26.293 25.242)">
    <path id="Trazado_102547" data-name="Trazado 102547" d="M216,88.015h1.854v1.854H216Z" transform="translate(-192.825 -78.744)" fill="#006e3c"/>
    <path id="Trazado_102548" data-name="Trazado 102548" d="M248,88.015h1.854v1.854H248Z" transform="translate(-221.117 -78.744)" fill="#006e3c"/>
    <path id="Trazado_102549" data-name="Trazado 102549" d="M280,88.015h1.854v1.854H280Z" transform="translate(-249.409 -78.744)" fill="#006e3c"/>
    <path id="Trazado_102550" data-name="Trazado 102550" d="M216,408.015h1.854v1.854H216Z" transform="translate(-192.825 -361.664)" fill="#006e3c"/>
    <path id="Trazado_102551" data-name="Trazado 102551" d="M248,408.015h1.854v1.854H248Z" transform="translate(-221.117 -361.664)" fill="#006e3c"/>
    <path id="Trazado_102552" data-name="Trazado 102552" d="M280,408.015h1.854v1.854H280Z" transform="translate(-249.409 -361.664)" fill="#006e3c"/>
    <path id="Trazado_102553" data-name="Trazado 102553" d="M88,216.015h1.854v1.854H88Z" transform="translate(-79.657 -191.912)" fill="#006e3c"/>
    <path id="Trazado_102554" data-name="Trazado 102554" d="M88,248.015h1.854v1.854H88Z" transform="translate(-79.657 -220.204)" fill="#006e3c"/>
    <path id="Trazado_102555" data-name="Trazado 102555" d="M88,280.015h1.854v1.854H88Z" transform="translate(-79.657 -248.496)" fill="#006e3c"/>
    <path id="Trazado_102556" data-name="Trazado 102556" d="M408,216.015h1.854v1.854H408Z" transform="translate(-362.577 -191.912)" fill="#006e3c"/>
    <path id="Trazado_102557" data-name="Trazado 102557" d="M408,248.015h1.854v1.854H408Z" transform="translate(-362.577 -220.204)" fill="#006e3c"/>
    <path id="Trazado_102558" data-name="Trazado 102558" d="M408,280.015h1.854v1.854H408Z" transform="translate(-362.577 -248.496)" fill="#006e3c"/>
    <path id="Trazado_102559" data-name="Trazado 102559" d="M26.2,16.015a10.2,10.2,0,1,0,10.2,10.2A10.2,10.2,0,0,0,26.2,16.015Zm4.635,17.131a8.328,8.328,0,0,1-9.27,0V31.774a2.79,2.79,0,0,1,2.781-2.781h3.708a2.79,2.79,0,0,1,2.781,2.781Zm-6.489-7.861V23.431a1.854,1.854,0,1,1,3.708,0v1.854a1.854,1.854,0,1,1-3.708,0Zm8.315,6.2a4.635,4.635,0,0,0-3.374-4.162,3.676,3.676,0,0,0,.621-2.039V23.431a3.708,3.708,0,1,0-7.416,0v1.854a3.676,3.676,0,0,0,.621,2.039,4.635,4.635,0,0,0-3.374,4.162,8.343,8.343,0,1,1,12.922,0Z" transform="translate(-16 -16.015)" fill="#006e3c"/>
    <path id="Trazado_102560" data-name="Trazado 102560" d="M330.2,16.015a10.2,10.2,0,1,0,10.2,10.2A10.2,10.2,0,0,0,330.2,16.015Zm4.635,17.131a8.328,8.328,0,0,1-9.27,0V31.774a2.789,2.789,0,0,1,2.781-2.781h3.708a2.79,2.79,0,0,1,2.781,2.781Zm-6.489-7.861V23.431a1.854,1.854,0,1,1,3.708,0v1.854a1.854,1.854,0,1,1-3.708,0Zm8.315,6.2a4.635,4.635,0,0,0-3.374-4.162,3.676,3.676,0,0,0,.621-2.039V23.431a3.708,3.708,0,0,0-7.416,0v1.854a3.676,3.676,0,0,0,.621,2.039,4.635,4.635,0,0,0-3.374,4.162,8.343,8.343,0,1,1,12.923,0Z" transform="translate(-282.92 -16.015)" fill="#006e3c"/>
    <path id="Trazado_102561" data-name="Trazado 102561" d="M26.2,320.015a10.2,10.2,0,1,0,10.2,10.2A10.2,10.2,0,0,0,26.2,320.015Zm4.635,17.131a8.328,8.328,0,0,1-9.27,0v-1.372a2.789,2.789,0,0,1,2.781-2.781h3.708a2.789,2.789,0,0,1,2.781,2.781Zm-6.489-7.861v-1.854a1.854,1.854,0,1,1,3.708,0v1.854a1.854,1.854,0,1,1-3.708,0Zm8.315,6.2a4.635,4.635,0,0,0-3.374-4.162,3.676,3.676,0,0,0,.621-2.039v-1.854a3.708,3.708,0,1,0-7.416,0v1.854a3.676,3.676,0,0,0,.621,2.039,4.635,4.635,0,0,0-3.374,4.162,8.343,8.343,0,1,1,12.922,0Z" transform="translate(-16 -283.862)" fill="#006e3c"/>
    <path id="Trazado_102562" data-name="Trazado 102562" d="M330.2,320.015a10.2,10.2,0,1,0,10.2,10.2A10.2,10.2,0,0,0,330.2,320.015Zm4.635,17.131a8.328,8.328,0,0,1-9.27,0v-1.372a2.789,2.789,0,0,1,2.781-2.781h3.708a2.79,2.79,0,0,1,2.781,2.781Zm-6.489-7.861v-1.854a1.854,1.854,0,1,1,3.708,0v1.854a1.854,1.854,0,1,1-3.708,0Zm8.315,6.2a4.635,4.635,0,0,0-3.374-4.162,3.676,3.676,0,0,0,.621-2.039v-1.854a3.708,3.708,0,1,0-7.416,0v1.854a3.676,3.676,0,0,0,.621,2.039,4.635,4.635,0,0,0-3.374,4.162,8.343,8.343,0,1,1,12.923,0Z" transform="translate(-284.774 -282.007)" fill="#006e3c"/>
    <g id="Grupo_1069600" data-name="Grupo 1069600" transform="translate(18.001 18.409)">
      <g id="Grupo_1069599" data-name="Grupo 1069599" transform="translate(0 0)" clip-path="url(#clip-path)">
        <path id="Trazado_816160" data-name="Trazado 816160" d="M9.284,19.6l.942,0a9.806,9.806,0,0,0,0-19.6L9.293,0,9.284.006a9.809,9.809,0,0,0,0,19.589M3.361,16.142a10.949,10.949,0,0,1,2.006-1.153A11.735,11.735,0,0,0,8.16,18.7a9.075,9.075,0,0,1-4.8-2.555M9.43,18.759A11.211,11.211,0,0,1,6.073,14.7a11.325,11.325,0,0,1,3.357-.668Zm0-5.479a12.105,12.105,0,0,0-3.663.73A11.184,11.184,0,0,1,4.983,10.5l4.446,0Zm0-3.538-4.471,0A11.307,11.307,0,0,1,5.57,6.116a11.917,11.917,0,0,0,3.86.818Zm1.9,8.979a11.722,11.722,0,0,0,2.886-3.869,10.986,10.986,0,0,1,2.159,1.171,9.048,9.048,0,0,1-5.045,2.7m5.547-3.272a11.708,11.708,0,0,0-2.368-1.3,11.972,11.972,0,0,0,.783-3.656l3.54,0a8.966,8.966,0,0,1-1.956,4.954m.283-10.924a8.96,8.96,0,0,1,1.7,5.211l-3.546,0a12.081,12.081,0,0,0-.621-3.774,11.952,11.952,0,0,0,2.465-1.439m-.468-.6a11.2,11.2,0,0,1-2.26,1.323A11.861,11.861,0,0,0,11.328.88a9.005,9.005,0,0,1,5.363,3.049M10.188.922a11.132,11.132,0,0,1,3.537,4.61,11.162,11.162,0,0,1-3.537.651Zm0,6.021a11.92,11.92,0,0,0,3.8-.7,11.329,11.329,0,0,1,.569,3.5l-4.367,0Zm0,3.557,4.343,0A11.212,11.212,0,0,1,13.8,13.89a12.108,12.108,0,0,0-3.608-.619Zm0,3.528a11.32,11.32,0,0,1,3.311.562,11.193,11.193,0,0,1-3.311,4.09ZM9.43.843V6.174a11.159,11.159,0,0,1-3.587-.767A11.151,11.151,0,0,1,9.43.843M8.161.9A11.886,11.886,0,0,0,5.147,5.1a11.163,11.163,0,0,1-2.1-1.3A9.035,9.035,0,0,1,8.161.9m-5.6,3.484A11.926,11.926,0,0,0,4.871,5.813,12.066,12.066,0,0,0,4.2,9.744l-3.442,0a8.949,8.949,0,0,1,1.8-5.359M.788,10.5l3.437,0a11.944,11.944,0,0,0,.838,3.791A11.736,11.736,0,0,0,2.85,15.577,8.948,8.948,0,0,1,.788,10.5" transform="translate(0 0)" fill="#006e3c"/>
      </g>
    </g>
  </g>
</svg>
