<svg xmlns="http://www.w3.org/2000/svg" width="99.695" height="99.695" viewBox="0 0 99.695 99.695">
  <g id="Grupo_54578" data-name="Grupo 54578" transform="translate(-261.057 -99.266)">
    <path id="Trazado_102613" data-name="Trazado 102613" d="M357.733,183.137H354.3V129.758a7.92,7.92,0,0,0-7.912-7.911H334.945V110.294a4.581,4.581,0,0,0-4.576-4.576h-1.876v-1.765a4.691,4.691,0,0,0-4.686-4.687H291.55a4.691,4.691,0,0,0-4.686,4.686v17.895H275.42a7.921,7.921,0,0,0-7.912,7.912v53.378h-3.433a3.022,3.022,0,0,0-3.018,3.018v5.115a7.7,7.7,0,0,0,7.691,7.691h74.72a1.461,1.461,0,0,0,0-2.921h-56.91v-1.765a1.461,1.461,0,1,0-2.921,0v1.765h-3.53v-1.765a1.46,1.46,0,1,0-2.921,0v1.765h-3.531v-1.765a1.46,1.46,0,1,0-2.921,0v1.765h-1.986a4.776,4.776,0,0,1-4.77-4.77v-5.115a.1.1,0,0,1,.1-.1h35.692v3.378a3.076,3.076,0,0,0,3.073,3.073h16.129a3.077,3.077,0,0,0,3.073-3.073v-3.378h35.691a.1.1,0,0,1,.1.1v5.115a4.776,4.776,0,0,1-4.771,4.77h-3.751a1.461,1.461,0,0,0,0,2.921h3.751a7.7,7.7,0,0,0,7.692-7.691v-5.115A3.022,3.022,0,0,0,357.733,183.137Zm-11.345-58.37a5,5,0,0,1,4.991,4.991v53.379h-3.53V131.372a3.077,3.077,0,0,0-3.073-3.074h-9.831v-3.531Zm-14.364-14.473V152.45a1.657,1.657,0,0,1-1.655,1.655H297.89a1.658,1.658,0,0,1-1.655-1.655V110.294a1.657,1.657,0,0,1,1.655-1.655h28.768a1.424,1.424,0,0,0,.75,0h2.961A1.656,1.656,0,0,1,332.024,110.294Zm-42.24-6.342a1.767,1.767,0,0,1,1.765-1.765h32.258a1.767,1.767,0,0,1,1.765,1.765v1.766H297.89a4.581,4.581,0,0,0-4.575,4.576v37.359h-1.766a1.767,1.767,0,0,1-1.765-1.765V103.952Zm-19.355,25.806a5,5,0,0,1,4.991-4.991h11.443V128.3h-9.83a3.077,3.077,0,0,0-3.073,3.074v9.982a1.461,1.461,0,0,0,2.921,0v-9.982a.153.153,0,0,1,.152-.153h9.83v14.669a4.691,4.691,0,0,0,4.686,4.686h1.766v1.876a4.58,4.58,0,0,0,4.575,4.575h32.479a4.58,4.58,0,0,0,4.576-4.575V131.219h9.83a.154.154,0,0,1,.153.153v51.765H276.881V147.2a1.461,1.461,0,0,0-2.921,0v35.942h-3.53Zm48.692,59.678a.152.152,0,0,1-.152.152H302.84a.153.153,0,0,1-.153-.152v-3.378h16.434Z" fill="#fff"/>
    <path id="Trazado_102614" data-name="Trazado 102614" d="M309.236,121.542h9.788a3.022,3.022,0,0,0,3.018-3.018v-3.337a3.022,3.022,0,0,0-3.018-3.018h-9.788a3.022,3.022,0,0,0-3.018,3.018v3.337a3.022,3.022,0,0,0,3.018,3.018Zm-.1-6.355a.1.1,0,0,1,.1-.1h9.788a.1.1,0,0,1,.1.1v3.337a.1.1,0,0,1-.1.1h-9.788a.1.1,0,0,1-.1-.1v-3.337Z" fill="#fff"/>
    <path id="Trazado_102615" data-name="Trazado 102615" d="M327.033,125.073H301.227a1.46,1.46,0,0,0,0,2.92h25.806a1.46,1.46,0,1,0,0-2.92Z" fill="#fff"/>
    <path id="Trazado_102616" data-name="Trazado 102616" d="M327.033,131.524H301.227a1.461,1.461,0,0,0,0,2.921h25.806a1.461,1.461,0,1,0,0-2.921Z" fill="#fff"/>
    <path id="Trazado_102617" data-name="Trazado 102617" d="M323.807,137.976H304.452a1.46,1.46,0,0,0,0,2.92h19.355a1.46,1.46,0,1,0,0-2.92Z" fill="#fff"/>
    <path id="Trazado_102618" data-name="Trazado 102618" d="M308.6,178.525a3,3,0,0,0,4.23.384,3.035,3.035,0,0,0,.385-.384l4.769-5.723a3,3,0,0,0-2.308-4.926.083.083,0,0,1-.083-.083v-3.365a3.008,3.008,0,0,0-3-3h-3.364a3.008,3.008,0,0,0-3,3v3.365a.083.083,0,0,1-.083.083,3,3,0,0,0-2.308,4.926Zm-2.537-7.681a.067.067,0,0,1,.075-.048,3.008,3.008,0,0,0,3-3v-3.364a.084.084,0,0,1,.083-.084h3.365a.084.084,0,0,1,.083.084h0v3.364a3.008,3.008,0,0,0,3,3,.083.083,0,0,1,.083.083.079.079,0,0,1-.02.053l-4.769,5.723a.083.083,0,0,1-.117.011l-.01-.011-4.769-5.723a.066.066,0,0,1-.012-.088Z" fill="#fff"/>
  </g>
</svg>
