<svg xmlns="http://www.w3.org/2000/svg" width="106.184" height="106.182" viewBox="0 0 106.184 106.182">
  <g id="Grupo_54596" data-name="Grupo 54596" transform="translate(-860.519 -126.907)">
    <path id="Trazado_102713" data-name="Trazado 102713" d="M963.487,216.235H959.83V159.384a8.436,8.436,0,0,0-8.427-8.427h-8.751V135.334a5,5,0,0,0-4.991-4.991H925.473v-.222a3.218,3.218,0,0,0-3.214-3.214h-17.3a3.218,3.218,0,0,0-3.214,3.214v.222H889.561a5,5,0,0,0-4.991,4.991v15.623h-8.752a8.436,8.436,0,0,0-8.427,8.427v56.851h-3.657a3.218,3.218,0,0,0-3.215,3.215V224.9a8.2,8.2,0,0,0,8.192,8.192h79.582a1.556,1.556,0,0,0,0-3.111H887.68V228.1a1.556,1.556,0,0,0-3.111,0v1.88h-3.76V228.1a1.556,1.556,0,0,0-3.111,0v1.88h-3.761V228.1a1.556,1.556,0,0,0-3.111,0v1.88h-2.115a5.086,5.086,0,0,1-5.081-5.081V219.45a.1.1,0,0,1,.1-.1h38.014v3.6a3.277,3.277,0,0,0,3.273,3.274H922.2a3.277,3.277,0,0,0,3.273-3.274v-3.6h38.014a.1.1,0,0,1,.1.1V224.9a5.086,5.086,0,0,1-5.081,5.081H954.6a1.556,1.556,0,0,0,0,3.111h3.906A8.2,8.2,0,0,0,966.7,224.9V219.45a3.218,3.218,0,0,0-3.215-3.215ZM951.4,154.068a5.321,5.321,0,0,1,5.316,5.316v56.851h-3.76V161.1a3.276,3.276,0,0,0-3.273-3.273h-7.034v-3.761Zm-46.44-10.308h17.3a3.217,3.217,0,0,0,3.214-3.214v-.221h7.034a.163.163,0,0,1,.163.162v41.444a.163.163,0,0,1-.163.162H894.714a.162.162,0,0,1-.162-.162V140.487a.162.162,0,0,1,.162-.162h7.034v.221a3.217,3.217,0,0,0,3.214,3.214Zm-.1-13.639a.1.1,0,0,1,.1-.1h7.092v1.88a1.556,1.556,0,0,0,3.111,0v-1.88h7.093a.1.1,0,0,1,.1.1v10.425a.1.1,0,0,1-.1.1h-17.3a.1.1,0,0,1-.1-.1Zm-15.3,3.333h12.187v3.76h-7.034a3.276,3.276,0,0,0-3.273,3.273v41.444a3.277,3.277,0,0,0,3.273,3.273h37.793a3.276,3.276,0,0,0,3.273-3.273V140.487a3.276,3.276,0,0,0-3.273-3.273h-7.034v-3.76h12.188a1.882,1.882,0,0,1,1.88,1.88v51.75a1.882,1.882,0,0,1-1.88,1.88h-48.1a1.883,1.883,0,0,1-1.881-1.88v-51.75A1.883,1.883,0,0,1,889.561,133.454ZM870.5,159.384a5.321,5.321,0,0,1,5.315-5.316h8.752v3.761h-7.034a3.276,3.276,0,0,0-3.273,3.273v10.414a1.555,1.555,0,1,0,3.111,0h0V161.1a.163.163,0,0,1,.162-.163h7.034v26.145a5,5,0,0,0,4.992,4.991h48.1a5,5,0,0,0,4.991-4.991V160.939h7.034a.163.163,0,0,1,.162.163v55.133H877.373v-38.28a1.555,1.555,0,0,0-3.111,0v38.28H870.5Zm51.86,63.56a.163.163,0,0,1-.162.163H905.021a.162.162,0,0,1-.162-.163v-3.6h17.5v3.6Z" fill="#fff"/>
    <path id="Trazado_102714" data-name="Trazado 102714" d="M906.247,172.992a1.555,1.555,0,0,0,1.967-.981v0l1.936-5.808h6.919l1.936,5.808a1.555,1.555,0,1,0,2.958-.962l-.007-.022-2.279-6.839,0-.009-4.589-13.766a1.556,1.556,0,0,0-2.951,0l-4.589,13.768,0,.006-2.28,6.84A1.555,1.555,0,0,0,906.247,172.992Zm7.363-17.172,2.423,7.269h-4.845Z" fill="#fff"/>
  </g>
</svg>
