<svg xmlns="http://www.w3.org/2000/svg" width="96.392" height="119.615" viewBox="0 0 96.392 119.615">
  <g id="Grupo_54575" data-name="Grupo 54575" transform="translate(-133.233 -84.019)">
    <path id="Trazado_102584" data-name="Trazado 102584" d="M224,145.944h-2.118v-2.118a5.63,5.63,0,0,0-5.622-5.623H190.921v-.646a5.621,5.621,0,0,0,0-10.683v-1.642a2.17,2.17,0,0,1,1.1-1.857,21.127,21.127,0,0,0,9.57-24.507,1.752,1.752,0,1,0-3.355,1.012l.007.025a17.623,17.623,0,0,1-7.983,20.44,5.686,5.686,0,0,0-2.842,4.886v1.361H183.18V114.615H185.3a1.752,1.752,0,1,0,0-3.5h-7.74a1.752,1.752,0,1,0,0,3.5h2.118v11.977H175.44V125.2a5.638,5.638,0,0,0-2.825-4.847,17.6,17.6,0,1,1,22.406-26.413,1.752,1.752,0,1,0,2.705-2.228h0a21.011,21.011,0,0,0-16.3-7.695c-.127,0-.255,0-.383,0a21.1,21.1,0,0,0-10.188,39.365,2.121,2.121,0,0,1,1.077,1.815v1.671a5.621,5.621,0,0,0,0,10.683v.647H146.6a5.63,5.63,0,0,0-5.622,5.621v2.119h-2.118a5.628,5.628,0,0,0-5.622,5.622v46.445a5.629,5.629,0,0,0,5.622,5.623h19.718a1.753,1.753,0,0,0,0-3.505H138.855a2.121,2.121,0,0,1-2.118-2.118V151.567a2.12,2.12,0,0,1,2.118-2.118h2.118V190.27a5.63,5.63,0,0,0,5.622,5.623h69.667a5.629,5.629,0,0,0,5.622-5.623V149.448H224a2.121,2.121,0,0,1,2.118,2.118v46.445A2.12,2.12,0,0,1,224,200.129H165.581a1.752,1.752,0,1,0,0,3.5H224a5.629,5.629,0,0,0,5.623-5.622V151.566A5.629,5.629,0,0,0,224,145.944Zm-5.622-2.118v40.821H189.169a9.458,9.458,0,0,0-5.989,2.134V147.7a6.01,6.01,0,0,1,.389-2.118h1.862a5.5,5.5,0,0,0,5.246-3.871h25.585A2.121,2.121,0,0,1,218.38,143.826Zm-42.94-5.989h11.977v2.251a1.99,1.99,0,0,1-1.986,1.986h-8.005a1.988,1.988,0,0,1-1.986-1.986Zm-1.752-7.741h15.481a2.118,2.118,0,0,1,0,4.237H173.688a2.118,2.118,0,1,1,0-4.237Zm-29.21,13.73a2.121,2.121,0,0,1,2.118-2.119H172.18a5.5,5.5,0,0,0,5.246,3.871h1.862a6.01,6.01,0,0,1,.389,2.118v39.085a9.458,9.458,0,0,0-5.989-2.134h-29.21Zm2.117,48.562a2.12,2.12,0,0,1-2.118-2.118v-2.118h29.211a6,6,0,0,1,5.727,4.236Zm71.785-2.118a2.12,2.12,0,0,1-2.118,2.118h-32.82a6,6,0,0,1,5.728-4.236h29.21v2.118Z" fill="#fff"/>
    <path id="Trazado_102585" data-name="Trazado 102585" d="M158.14,157.189h7.873a3.625,3.625,0,0,0,3.621-3.621v-4a3.625,3.625,0,0,0-3.621-3.621H158.14a3.626,3.626,0,0,0-3.622,3.621v4A3.626,3.626,0,0,0,158.14,157.189Zm-.117-7.624a.117.117,0,0,1,.117-.117h7.873a.118.118,0,0,1,.117.117v4a.118.118,0,0,1-.117.117H158.14a.117.117,0,0,1-.117-.117Z" fill="#fff"/>
    <path id="Trazado_102586" data-name="Trazado 102586" d="M150.465,164.93h23.223a1.752,1.752,0,0,0,0-3.5H150.465a1.752,1.752,0,0,0,0,3.5Z" fill="#fff"/>
    <path id="Trazado_102587" data-name="Trazado 102587" d="M150.465,172.671h23.223a1.753,1.753,0,0,0,0-3.505H150.465a1.753,1.753,0,0,0,0,3.505Z" fill="#fff"/>
    <path id="Trazado_102588" data-name="Trazado 102588" d="M150.465,180.411h23.223a1.752,1.752,0,0,0,0-3.5H150.465a1.752,1.752,0,1,0,0,3.5Z" fill="#fff"/>
    <path id="Trazado_102589" data-name="Trazado 102589" d="M196.843,157.189h7.874a3.625,3.625,0,0,0,3.621-3.621v-4a3.625,3.625,0,0,0-3.621-3.621h-7.874a3.625,3.625,0,0,0-3.621,3.621v4A3.625,3.625,0,0,0,196.843,157.189Zm-.116-7.624a.117.117,0,0,1,.116-.117h7.874a.117.117,0,0,1,.116.117v4a.117.117,0,0,1-.116.117h-7.874a.117.117,0,0,1-.116-.117Z" fill="#fff"/>
    <path id="Trazado_102590" data-name="Trazado 102590" d="M187.418,163.177a1.752,1.752,0,0,0,1.752,1.753h23.222a1.752,1.752,0,0,0,0-3.5H189.17A1.752,1.752,0,0,0,187.418,163.177Z" fill="#fff"/>
    <path id="Trazado_102591" data-name="Trazado 102591" d="M212.392,169.166H189.17a1.753,1.753,0,0,0,0,3.505h23.222a1.753,1.753,0,0,0,0-3.505Z" fill="#fff"/>
    <path id="Trazado_102592" data-name="Trazado 102592" d="M212.392,176.907H189.17a1.752,1.752,0,0,0,0,3.5h23.222a1.752,1.752,0,1,0,0-3.5Z" fill="#fff"/>
    <path id="Trazado_102593" data-name="Trazado 102593" d="M210.6,105.122a1.752,1.752,0,0,0,1.753,1.752h7.74a1.752,1.752,0,1,0,0-3.5h-7.74A1.752,1.752,0,0,0,210.6,105.122Z" fill="#fff"/>
    <path id="Trazado_102594" data-name="Trazado 102594" d="M209.612,94.129a1.739,1.739,0,0,0,1.238-.514l5.474-5.473a1.752,1.752,0,0,0-2.478-2.478l-5.472,5.474a1.753,1.753,0,0,0,1.238,2.991Z" fill="#fff"/>
    <path id="Trazado_102595" data-name="Trazado 102595" d="M213.848,124.579a1.752,1.752,0,1,0,2.478-2.478l-5.474-5.473a1.752,1.752,0,0,0-2.478,2.477Z" fill="#fff"/>
    <path id="Trazado_102596" data-name="Trazado 102596" d="M142.766,106.874h7.741a1.752,1.752,0,1,0,0-3.5h-7.741a1.752,1.752,0,1,0,0,3.5Z" fill="#fff"/>
    <path id="Trazado_102597" data-name="Trazado 102597" d="M152,116.628l-5.473,5.473a1.753,1.753,0,0,0,2.479,2.479h0l5.474-5.474a1.753,1.753,0,1,0-2.479-2.478Z" fill="#fff"/>
    <path id="Trazado_102598" data-name="Trazado 102598" d="M152,93.616a1.753,1.753,0,0,0,2.479-2.478l-5.474-5.473a1.752,1.752,0,0,0-2.478,2.478Z" fill="#fff"/>
  </g>
</svg>
