<svg xmlns="http://www.w3.org/2000/svg" width="88.962" height="110.394" viewBox="0 0 88.962 110.394">
  <g id="Grupo_54589" data-name="Grupo 54589" transform="translate(-598.217 -107.903)">
    <path id="Trazado_102669" data-name="Trazado 102669" d="M678.418,107.9h-71.44a8.772,8.772,0,0,0-8.761,8.761v92.871a8.772,8.772,0,0,0,8.761,8.762h71.44a8.772,8.772,0,0,0,8.761-8.762V116.664A8.772,8.772,0,0,0,678.418,107.9Zm-71.44,3.235h71.44a5.533,5.533,0,0,1,5.527,5.526v12.671H601.452V116.664A5.531,5.531,0,0,1,606.978,111.138Zm71.44,103.924h-71.44a5.532,5.532,0,0,1-5.526-5.527V132.569h82.493v76.966A5.533,5.533,0,0,1,678.418,215.062Z" fill="#fff"/>
    <path id="Trazado_102670" data-name="Trazado 102670" d="M610.55,125.425a5.189,5.189,0,1,0-5.189-5.189h0A5.194,5.194,0,0,0,610.55,125.425Zm0-7.144a1.955,1.955,0,1,1-1.955,1.955h0a1.959,1.959,0,0,1,1.955-1.955Z" fill="#fff"/>
    <path id="Trazado_102671" data-name="Trazado 102671" d="M624.838,125.425a5.189,5.189,0,1,0-5.189-5.188A5.189,5.189,0,0,0,624.838,125.425Zm0-7.144a1.955,1.955,0,1,1-1.955,1.955h0a1.958,1.958,0,0,1,1.955-1.955Z" fill="#fff"/>
    <path id="Trazado_102672" data-name="Trazado 102672" d="M639.126,125.425a5.189,5.189,0,1,0-5.189-5.189h0A5.2,5.2,0,0,0,639.126,125.425Zm0-7.144a1.955,1.955,0,1,1-1.955,1.955h0a1.958,1.958,0,0,1,1.955-1.955Z" fill="#fff"/>
    <path id="Trazado_102673" data-name="Trazado 102673" d="M676.693,143.623H608.7a3.345,3.345,0,0,0-3.342,3.342v17.982a3.345,3.345,0,0,0,3.342,3.342h67.99a3.345,3.345,0,0,0,3.342-3.342V146.965A3.345,3.345,0,0,0,676.693,143.623Zm-68.1,21.324V146.965a.108.108,0,0,1,.108-.108h18.09v18.2H608.7A.109.109,0,0,1,608.595,164.947Zm68.206,0a.109.109,0,0,1-.108.108H630.027v-18.2h46.666a.108.108,0,0,1,.108.108Z" fill="#fff"/>
    <path id="Trazado_102674" data-name="Trazado 102674" d="M619.48,154.339h-3.572a1.617,1.617,0,1,0,0,3.234h3.572a1.617,1.617,0,1,0,0-3.234Z" fill="#fff"/>
    <path id="Trazado_102675" data-name="Trazado 102675" d="M635.554,154H642.7a1.617,1.617,0,0,0,0-3.234h-7.144a1.617,1.617,0,0,0,0,3.234Z" fill="#fff"/>
    <path id="Trazado_102676" data-name="Trazado 102676" d="M656.986,157.911H635.554a1.617,1.617,0,0,0,0,3.234h21.432a1.617,1.617,0,0,0,0-3.234Z" fill="#fff"/>
    <path id="Trazado_102677" data-name="Trazado 102677" d="M671.274,157.911H664.13a1.617,1.617,0,0,0,0,3.234h7.144a1.617,1.617,0,0,0,0-3.234Z" fill="#fff"/>
    <path id="Trazado_102678" data-name="Trazado 102678" d="M676.632,179.343H608.764a3.407,3.407,0,0,0-3.4,3.4V200.6a3.408,3.408,0,0,0,3.4,3.4h47.241l.134,1.474a3.326,3.326,0,0,0,5.664,2.051.092.092,0,0,1,.13,0l2.635,2.635a3.33,3.33,0,0,0,4.7,0l2.635-2.635a3.316,3.316,0,0,0,.758-3.525h3.968a3.407,3.407,0,0,0,3.4-3.4v-17.86a3.406,3.406,0,0,0-3.4-3.4Zm-68.037,21.263v-17.86a.17.17,0,0,1,.169-.169h18.029v18.2H608.764a.171.171,0,0,1-.169-.169Zm61.025,4.641-2.635,2.635a.092.092,0,0,1-.129,0l-2.635-2.635a3.33,3.33,0,0,0-4.7,0,.092.092,0,0,1-.13,0,.094.094,0,0,1-.026-.057l-.747-8.214a.091.091,0,0,1,.083-.1.048.048,0,0,1,.017,0l8.215.746a.092.092,0,0,1,.083.1.088.088,0,0,1-.027.056,3.33,3.33,0,0,0,0,4.7l2.635,2.634a.094.094,0,0,1,0,.13Zm7.18-4.641a.17.17,0,0,1-.169.169h-6.78l-.579-.579a.094.094,0,0,1,0-.13,3.29,3.29,0,0,0,.863-3.2h1.138a1.618,1.618,0,0,0,0-3.235h-5.358a1.609,1.609,0,0,0-1.2.543l-5.705-.518a3.326,3.326,0,0,0-3.613,3.011,3.372,3.372,0,0,0,0,.6l.319,3.507H630.027v-18.2h46.6a.169.169,0,0,1,.169.169v17.858Z" fill="#fff"/>
    <path id="Trazado_102679" data-name="Trazado 102679" d="M619.48,190.059h-3.572a1.617,1.617,0,1,0,0,3.234h3.572a1.617,1.617,0,1,0,0-3.234Z" fill="#fff"/>
    <path id="Trazado_102680" data-name="Trazado 102680" d="M635.554,189.721H642.7a1.618,1.618,0,0,0,0-3.235h-7.144a1.618,1.618,0,0,0,0,3.235Z" fill="#fff"/>
    <path id="Trazado_102681" data-name="Trazado 102681" d="M653.414,193.631h-17.86a1.617,1.617,0,0,0,0,3.234h17.86a1.617,1.617,0,0,0,0-3.234Z" fill="#fff"/>
  </g>
</svg>
