<svg xmlns="http://www.w3.org/2000/svg" width="103.239" height="103.238" viewBox="0 0 103.239 103.238">
  <g id="Grupo_54585" data-name="Grupo 54585" transform="translate(-410.837 -99.947)">
    <path id="Trazado_102638" data-name="Trazado 102638" d="M514.076,168.269V137.86a1.512,1.512,0,0,0-3.025,0v28.9h-3.656V116.492a3.187,3.187,0,0,0-3.183-3.183h-6.839v-3.656h8.509a5.174,5.174,0,0,1,5.169,5.168v17.018a1.512,1.512,0,1,0,3.025,0V114.821a8.2,8.2,0,0,0-8.193-8.193h-8.509v-1.942a4.744,4.744,0,0,0-4.739-4.739H432.278a4.744,4.744,0,0,0-4.739,4.739v1.942H419.03a8.2,8.2,0,0,0-8.193,8.193V174.95a8.2,8.2,0,0,0,8.193,8.193h7a1.513,1.513,0,0,0,0-3.025h-7a5.175,5.175,0,0,1-5.169-5.168v-5.169h97.19v5.169a5.173,5.173,0,0,1-5.168,5.168H432.076a1.513,1.513,0,0,0,0,3.025h16.14l-1.292,10.337h-7.851a1.512,1.512,0,0,0-1.512,1.512v6.682a1.512,1.512,0,0,0,1.512,1.512H485.84a1.512,1.512,0,0,0,1.512-1.512v-6.682a1.512,1.512,0,0,0-1.512-1.512h-7.852L476.7,183.143h29.186a8.2,8.2,0,0,0,8.194-8.193v-6.682Zm-9.864-51.936a.159.159,0,0,1,.158.158v50.266h-7V116.333Zm-73.648-11.647a1.715,1.715,0,0,1,1.714-1.714h60.357a1.716,1.716,0,0,1,1.714,1.714v5.283H430.564Zm-3.025,62.071h-7V116.492a.158.158,0,0,1,.158-.158h6.839Zm-13.678-51.936a5.175,5.175,0,0,1,5.169-5.168h8.509v3.656H420.7a3.185,3.185,0,0,0-3.182,3.182v50.266h-3.657Zm16.7,51.936V112.993h63.785v53.764Zm30.064,16.386h3.656V186.8h-3.656Zm23.7,17.018H440.585v-3.656h43.742Zm-9.386-6.681H449.972l1.292-10.337h6.34v5.168a1.512,1.512,0,0,0,1.512,1.512H465.8a1.512,1.512,0,0,0,1.512-1.512h0v-5.168h6.339Z" fill="#fff"/>
    <path id="Trazado_102639" data-name="Trazado 102639" d="M435.733,107.982h1.67a1.512,1.512,0,0,0,0-3.024h-1.67a1.512,1.512,0,1,0,0,3.024Z" fill="#fff"/>
    <path id="Trazado_102640" data-name="Trazado 102640" d="M444.084,107.982h1.67a1.512,1.512,0,0,0,0-3.024h-1.67a1.512,1.512,0,1,0,0,3.024Z" fill="#fff"/>
    <path id="Trazado_102641" data-name="Trazado 102641" d="M452.435,107.982h1.67a1.512,1.512,0,0,0,0-3.024h-1.67a1.512,1.512,0,0,0,0,3.024Z" fill="#fff"/>
    <path id="Trazado_102642" data-name="Trazado 102642" d="M487.567,116.649H437.346a3.129,3.129,0,0,0-3.126,3.126v13.476a3.129,3.129,0,0,0,3.126,3.125h50.221a3.129,3.129,0,0,0,3.125-3.125V119.775A3.129,3.129,0,0,0,487.567,116.649Zm.1,16.6a.1.1,0,0,1-.1.1H437.346a.1.1,0,0,1-.1-.1V119.775a.1.1,0,0,1,.1-.1h50.221a.1.1,0,0,1,.1.1Z" fill="#fff"/>
    <path id="Trazado_102643" data-name="Trazado 102643" d="M440.8,140.033h-3.454a3.129,3.129,0,0,0-3.126,3.125v3.455a3.129,3.129,0,0,0,3.126,3.125H440.8a3.129,3.129,0,0,0,3.126-3.125v-3.455A3.129,3.129,0,0,0,440.8,140.033Zm.1,6.58a.1.1,0,0,1-.1.1h-3.454a.1.1,0,0,1-.1-.1v-3.455a.1.1,0,0,1,.1-.1H440.8a.1.1,0,0,1,.1.1Z" fill="#fff"/>
    <path id="Trazado_102644" data-name="Trazado 102644" d="M440.8,153.4h-3.454a3.128,3.128,0,0,0-3.126,3.125v3.455a3.129,3.129,0,0,0,3.126,3.125H440.8a3.129,3.129,0,0,0,3.126-3.125V156.52A3.128,3.128,0,0,0,440.8,153.4Zm.1,6.58a.1.1,0,0,1-.1.1h-3.454a.1.1,0,0,1-.1-.1V156.52a.1.1,0,0,1,.1-.1H440.8a.1.1,0,0,1,.1.1Z" fill="#fff"/>
    <path id="Trazado_102645" data-name="Trazado 102645" d="M470.865,140.033H467.41a3.128,3.128,0,0,0-3.125,3.125v3.455a3.128,3.128,0,0,0,3.125,3.125h3.455a3.129,3.129,0,0,0,3.125-3.125v-3.455A3.129,3.129,0,0,0,470.865,140.033Zm.1,6.58a.1.1,0,0,1-.1.1H467.41a.1.1,0,0,1-.1-.1v-3.455a.1.1,0,0,1,.1-.1h3.455a.1.1,0,0,1,.1.1Z" fill="#fff"/>
    <path id="Trazado_102646" data-name="Trazado 102646" d="M470.865,153.4H467.41a3.127,3.127,0,0,0-3.125,3.125v3.455a3.128,3.128,0,0,0,3.125,3.125h3.455a3.129,3.129,0,0,0,3.125-3.125V156.52A3.128,3.128,0,0,0,470.865,153.4Zm.1,6.58a.1.1,0,0,1-.1.1H467.41a.1.1,0,0,1-.1-.1V156.52a.1.1,0,0,1,.1-.1h3.455a.1.1,0,0,1,.1.1Z" fill="#fff"/>
    <path id="Trazado_102647" data-name="Trazado 102647" d="M449.094,143.057h6.681a1.512,1.512,0,0,0,0-3.024h-6.681a1.512,1.512,0,0,0,0,3.024Z" fill="#fff"/>
    <path id="Trazado_102648" data-name="Trazado 102648" d="M459.116,146.714H449.1a1.512,1.512,0,1,0,0,3.024h10.021a1.512,1.512,0,0,0,0-3.024Z" fill="#fff"/>
    <path id="Trazado_102649" data-name="Trazado 102649" d="M449.094,156.419h6.681a1.512,1.512,0,0,0,0-3.024h-6.681a1.512,1.512,0,0,0,0,3.024Z" fill="#fff"/>
    <path id="Trazado_102650" data-name="Trazado 102650" d="M459.116,160.075H449.1a1.513,1.513,0,1,0,0,3.025h10.021a1.513,1.513,0,0,0,0-3.025Z" fill="#fff"/>
    <path id="Trazado_102651" data-name="Trazado 102651" d="M479.159,143.057h6.68a1.512,1.512,0,1,0,0-3.024h-6.68a1.512,1.512,0,1,0,0,3.024Z" fill="#fff"/>
    <path id="Trazado_102652" data-name="Trazado 102652" d="M489.18,146.714H479.159a1.512,1.512,0,1,0,0,3.024H489.18a1.512,1.512,0,0,0,0-3.024Z" fill="#fff"/>
    <path id="Trazado_102653" data-name="Trazado 102653" d="M479.159,156.419h6.68a1.512,1.512,0,1,0,0-3.024h-6.68a1.512,1.512,0,1,0,0,3.024Z" fill="#fff"/>
    <path id="Trazado_102654" data-name="Trazado 102654" d="M489.18,160.075H479.159a1.513,1.513,0,1,0,0,3.025H489.18a1.513,1.513,0,0,0,0-3.025Z" fill="#fff"/>
    <path id="Trazado_102655" data-name="Trazado 102655" d="M455.775,123.33H442.413a1.513,1.513,0,0,0,0,3.025h13.362a1.513,1.513,0,1,0,0-3.025Z" fill="#fff"/>
    <path id="Trazado_102656" data-name="Trazado 102656" d="M469.137,123.33h-6.681a1.513,1.513,0,0,0,0,3.025h6.681a1.513,1.513,0,0,0,0-3.025Z" fill="#fff"/>
    <path id="Trazado_102657" data-name="Trazado 102657" d="M482.5,123.33h-6.681a1.513,1.513,0,0,0,0,3.025H482.5a1.513,1.513,0,0,0,0-3.025Z" fill="#fff"/>
  </g>
</svg>
