<svg xmlns="http://www.w3.org/2000/svg" width="106.183" height="106.182" viewBox="0 0 106.183 106.182">
  <g id="Grupo_54593" data-name="Grupo 54593" transform="translate(-734.835 -89.966)">
    <path id="Trazado_102698" data-name="Trazado 102698" d="M837.8,179.295h-3.657V122.443a8.437,8.437,0,0,0-8.427-8.427h-8.538v-7.034a3.276,3.276,0,0,0-3.273-3.273h-7.033V99.948h.221a3.218,3.218,0,0,0,3.215-3.214V93.181a3.218,3.218,0,0,0-3.215-3.215h-37.91a3.218,3.218,0,0,0-3.214,3.215v3.553a3.218,3.218,0,0,0,3.214,3.214h.221v3.761h-7.034a3.276,3.276,0,0,0-3.273,3.273v7.034h-8.967a8.436,8.436,0,0,0-8.426,8.427v56.852H738.05a3.218,3.218,0,0,0-3.215,3.214v5.448a8.2,8.2,0,0,0,8.192,8.191h79.989a1.555,1.555,0,1,0,0-3.11H762v-1.881a1.555,1.555,0,0,0-3.111,0v1.881h-3.76v-1.881a1.556,1.556,0,0,0-3.111,0v1.881h-3.761v-1.881a1.555,1.555,0,0,0-3.111,0v1.881h-2.115a5.087,5.087,0,0,1-5.081-5.081v-5.448a.1.1,0,0,1,.1-.1h38.014V186a3.276,3.276,0,0,0,3.273,3.273h17.179A3.276,3.276,0,0,0,799.789,186v-3.6H837.8a.1.1,0,0,1,.1.1v5.448a5.087,5.087,0,0,1-5.081,5.081h-3.788a1.555,1.555,0,1,0,0,3.11h3.788a8.2,8.2,0,0,0,8.192-8.191v-5.448A3.218,3.218,0,0,0,837.8,179.295Zm-6.768-56.852v56.852h-3.76V124.161A3.276,3.276,0,0,0,824,120.888h-8.714a8.4,8.4,0,0,0,1.748-3.761h8.683A5.322,5.322,0,0,1,831.035,122.443Zm-22.28-1.555h-1.88v-3.761h6.963a5.324,5.324,0,0,1-5.083,3.761Zm5.154-14.068a.163.163,0,0,1,.162.162v7.034h-7.2v-7.2ZM769.082,96.734V93.181a.1.1,0,0,1,.1-.1H807.1a.1.1,0,0,1,.1.1v3.553a.1.1,0,0,1-.1.1h-37.91a.1.1,0,0,1-.1-.1Zm34.682,3.214v22.5a15.623,15.623,0,0,1-31.246,0v-22.5Zm-27.648,61.843h25.827a.1.1,0,0,1,.1.1v3.553a.1.1,0,0,1-.1.1h-27.6a.1.1,0,0,1-.1-.1V161.9a.1.1,0,0,1,.1-.1Zm22.495-3.111H777.672V148.152a.1.1,0,0,1,.1-.1h20.732a.1.1,0,0,1,.1.1V158.68Zm-12.35-13.742v-3.855q.927.093,1.88.094a18.248,18.248,0,0,0,1.88-.094v3.855Zm-16.854-24.05h-1.88a5.327,5.327,0,0,1-5.084-3.761h6.964v3.761Zm-7.2-13.906a.163.163,0,0,1,.162-.162h7.034v7.2h-7.2Zm-17.393,15.461a5.322,5.322,0,0,1,5.315-5.316h9.113a8.4,8.4,0,0,0,1.748,3.761h-9.143a3.276,3.276,0,0,0-3.273,3.273v10.632a1.555,1.555,0,1,0,3.11,0V124.161a.163.163,0,0,1,.163-.162h17.621a18.776,18.776,0,0,0,13.678,16.5v4.437h-5.375a3.218,3.218,0,0,0-3.214,3.214v10.529h-.221a3.218,3.218,0,0,0-3.215,3.214v3.553a3.218,3.218,0,0,0,3.215,3.215h27.6a3.218,3.218,0,0,0,3.214-3.215V161.9a3.218,3.218,0,0,0-3.214-3.214h-.221V148.152a3.218,3.218,0,0,0-3.215-3.214h-5.375V140.5A18.776,18.776,0,0,0,806.81,124H824a.163.163,0,0,1,.162.163v55.134H751.688V141.014a1.555,1.555,0,1,0-3.11,0v38.281h-3.76ZM796.678,186a.163.163,0,0,1-.162.162H779.337a.163.163,0,0,1-.163-.162v-3.6h17.5V186Z" fill="#fff"/>
    <path id="Trazado_102699" data-name="Trazado 102699" d="M789.859,151.809h-3.436a1.555,1.555,0,0,0,0,3.111h3.436a1.555,1.555,0,0,0,0-3.111Z" fill="#fff"/>
    <path id="Trazado_102700" data-name="Trazado 102700" d="M781.961,116.234l-.876,5.106a1.556,1.556,0,0,0,2.257,1.639l4.584-2.41,4.585,2.41a1.556,1.556,0,0,0,2.257-1.639l-.876-5.106,3.709-3.615a1.555,1.555,0,0,0-.862-2.653l-5.126-.745-2.292-4.645a1.555,1.555,0,0,0-2.79,0l-2.292,4.645-5.126.745a1.555,1.555,0,0,0-.862,2.653Zm3.535-4.052a1.558,1.558,0,0,0,1.171-.851l1.259-2.551,1.26,2.551a1.558,1.558,0,0,0,1.171.851l2.816.409-2.037,1.986a1.558,1.558,0,0,0-.448,1.377l.481,2.805-2.519-1.324a1.55,1.55,0,0,0-1.447,0l-2.519,1.324.481-2.805a1.558,1.558,0,0,0-.448-1.377l-2.037-1.986Z" fill="#fff"/>
  </g>
</svg>
